Coordinates
version=1
nRows=14
nColumns=38
inDegrees=no

Units are S.I. units (second, meters, Newtons, ...)
If the header above contains a line with 'inDegrees', this indicates whether rotational values are in degrees (yes) or radians (no).

endheader
time	pelvis_tilt	pelvis_list	pelvis_rotation	pelvis_tx	pelvis_ty	pelvis_tz	hip_flexion_r	hip_adduction_r	hip_rotation_r	knee_angle_r	ankle_angle_r	subtalar_angle_r	mtp_angle_r	hip_flexion_l	hip_adduction_l	hip_rotation_l	knee_angle_l	ankle_angle_l	subtalar_angle_l	mtp_angle_l	lumbar_extension	lumbar_bending	lumbar_rotation	arm_flex_r	arm_add_r	arm_rot_r	elbow_flex_r	pro_sup_r	wrist_flex_r	wrist_dev_r	arm_flex_l	arm_add_l	arm_rot_l	elbow_flex_l	pro_sup_l	wrist_flex_l	wrist_dev_l
60	0.550041	1.47945	1.01789	0.699647	0.183603	1.02463	0.144917	-0.0681703	-0.628861	0.21489	0.0170427	0	0	0.0711015	-0.0888252	-0.461278	0	-0.107623	0	0	-0.258939	0.0698806	0.154284	0.326534	-0.556422	-0.054837	1.3038	0.838627	0	0	0.336873	-0.335082	0.0930697	1.2422	0.877927	0	0
60.01	0.543624	1.47969	1.02736	0.699517	0.183721	1.02462	0.144825	-0.0694032	-0.630993	0.215757	0.0179036	0	0	0.0716761	-0.0879731	-0.459345	0	-0.107755	0	0	-0.25901	0.0699091	0.152284	0.32592	-0.55728	-0.0557322	1.30487	0.837094	0	0	0.337037	-0.334103	0.0924037	1.24319	0.878536	0	0
60.02	0.538085	1.48002	1.0357	0.699403	0.183851	1.02459	0.14476	-0.0707699	-0.633047	0.217149	0.0189674	0	0	0.0719961	-0.087147	-0.457406	0	-0.107979	0	0	-0.259206	0.0698666	0.150615	0.325116	-0.558127	-0.0572576	1.3064	0.835508	0	0	0.337388	-0.333201	0.092025	1.24399	0.878407	0	0
60.03	0.532769	1.48038	1.04364	0.699282	0.183992	1.02456	0.144667	-0.0721047	-0.635014	0.218469	0.0199621	0	0	0.072257	-0.0863128	-0.455676	0	-0.108417	0	0	-0.259415	0.0697584	0.149136	0.324123	-0.559118	-0.0584678	1.30807	0.835313	0	0	0.337867	-0.332401	0.0920208	1.2447	0.876809	0	0
60.04	0.52778	1.48068	1.05086	0.699194	0.184127	1.02454	0.144434	-0.0731905	-0.636775	0.219233	0.0205898	0	0	0.0724685	-0.0855583	-0.454413	0	-0.108597	0	0	-0.259549	0.0695818	0.147846	0.323187	-0.560187	-0.0588819	1.30943	0.835562	0	0	0.338253	-0.331746	0.0921955	1.24548	0.874123	0	0
60.05	0.524154	1.48095	1.05624	0.699142	0.184273	1.02453	0.144127	-0.0739875	-0.638252	0.219755	0.0210618	0	0	0.0725756	-0.0850176	-0.453591	0	-0.108472	0	0	-0.259643	0.0694078	0.146779	0.32258	-0.561015	-0.0594601	1.3105	0.834428	0	0	0.33848	-0.331347	0.092223	1.24637	0.873265	0	0
60.06	0.522763	1.48125	1.05888	0.699146	0.184433	1.02454	0.14365	-0.0744675	-0.639448	0.220095	0.0215008	0	0	0.0724294	-0.0847375	-0.453051	0	-0.108118	0	0	-0.259796	0.069266	0.146027	0.322286	-0.561544	-0.0602531	1.31139	0.833422	0	0	0.33861	-0.331021	0.0920359	1.24702	0.872997	0	0
60.07	0.522214	1.48154	1.06023	0.699211	0.184595	1.02457	0.143116	-0.0747458	-0.640515	0.220238	0.0218986	0	0	0.0721381	-0.0845984	-0.452681	0	-0.107616	0	0	-0.259955	0.0691224	0.145588	0.322037	-0.561987	-0.0605558	1.3122	0.834285	0	0	0.338663	-0.330759	0.0918388	1.24762	0.872852	0	0
60.08	0.521467	1.48177	1.06133	0.699288	0.184786	1.02458	0.142726	-0.0749076	-0.641274	0.220379	0.0223343	0	0	0.0718351	-0.0845428	-0.452229	0	-0.107608	0	0	-0.259994	0.0689445	0.145543	0.321804	-0.562383	-0.0609632	1.31304	0.835024	0	0	0.338736	-0.330621	0.0917951	1.24795	0.872286	0	0
60.09	0.519742	1.48183	1.06289	0.699391	0.184984	1.02456	0.142707	-0.0751127	-0.6417	0.220805	0.0228152	0	0	0.0717856	-0.084487	-0.452603	0	-0.107375	0	0	-0.259726	0.0687889	0.146025	0.321275	-0.56278	-0.0617635	1.31415	0.835457	0	0	0.338908	-0.330523	0.0921568	1.24779	0.871901	0	0
60.1	0.517966	1.482	1.06411	0.699554	0.185188	1.02458	0.142672	-0.0753437	-0.641649	0.221338	0.0233357	0	0	0.0714548	-0.0844043	-0.452825	0	-0.107321	0	0	-0.25958	0.068513	0.146913	0.320553	-0.563077	-0.0626911	1.31541	0.835648	0	0	0.339326	-0.330463	0.0927034	1.24708	0.872521	0	0
60.11	0.516984	1.48237	1.06426	0.699735	0.185415	1.02462	0.142461	-0.0755386	-0.641232	0.221888	0.0238409	0	0	0.0707048	-0.0843613	-0.452624	0	-0.107542	0	0	-0.259771	0.0681093	0.147917	0.320095	-0.56332	-0.063257	1.31662	0.834995	0	0	0.339718	-0.330498	0.0929284	1.24619	0.873467	0	0
60.12	0.517094	1.48287	1.06326	0.699879	0.185672	1.02467	0.142067	-0.0757042	-0.640749	0.222451	0.024378	0	0	0.0698101	-0.0843274	-0.45266	0	-0.10752	0	0	-0.26023	0.0677284	0.148785	0.319913	-0.563457	-0.0638271	1.31788	0.833803	0	0	0.340007	-0.33044	0.0928706	1.24546	0.872621	0	0
60.13	0.517842	1.4834	1.06168	0.700021	0.185905	1.0247	0.141597	-0.0758251	-0.640243	0.222894	0.0247661	0	0	0.0689032	-0.0842973	-0.452845	0	-0.107303	0	0	-0.260828	0.0674392	0.149383	0.320105	-0.563379	-0.0645379	1.31906	0.833109	0	0	0.340211	-0.330221	0.09246	1.24465	0.871002	0	0
